<?xml version="1.0" encoding="UTF-8" standalone="no"?>
<svg
   xmlns:dc="http://purl.org/dc/elements/1.1/"
   xmlns:cc="http://creativecommons.org/ns#"
   xmlns:rdf="http://www.w3.org/1999/02/22-rdf-syntax-ns#"
   xmlns:svg="http://www.w3.org/2000/svg"
   xmlns="http://www.w3.org/2000/svg"
   version="1.1"
   id="svg4428"
   viewBox="0 0 99.999997 99.999997"
   height="28.222221mm"
   width="28.222221mm">
  <defs
     id="defs4430" />
  <metadata
     id="metadata4433">
    <rdf:RDF>
      <cc:Work
         rdf:about="">
        <dc:format>image/svg+xml</dc:format>
        <dc:type
           rdf:resource="http://purl.org/dc/dcmitype/StillImage" />
        <dc:title></dc:title>
      </cc:Work>
    </rdf:RDF>
  </metadata>
  <g
     transform="translate(-389.14285,-534.64789)"
     id="layer1">
    <g
       transform="matrix(0.390625,0,0,0.39062501,320.78739,406.45116)"
       id="layer1-3">
      <g
         style="fill:#7f8fa4;fill-opacity:1"
         transform="matrix(1.1803345,0,0,1.2361894,172.77883,321.66397)"
         id="g4310">
        <path
           style="fill:#7f8fa4;fill-opacity:1"
           d="m 218.082,205.75 c -0.344,-3.347 -2.393,-20.416 -9.003,-27.748 -4.107,-4.559 -18.004,-11.324 -46.547,-24.625 -4.064,-1.894 -8.15,-3.798 -12.136,-5.673 -2.716,-1.278 -5.017,-6.245 -6.005,-12.961 -0.872,-5.93 -0.518,-11.056 -0.069,-13.553 0.841,-1.871 1.5,-3.833 1.956,-5.875 1.043,-3.3 1.66,-6.356 1.938,-9.666 2.687,-2.401 4.95,-6.437 6.852,-12.188 1.789,-5.413 3.03,-11.833 2.95,-15.265 -0.101,-4.298 -1.393,-6.915 -2.978,-8.507 0.01,-0.291 0.021,-0.585 0.031,-0.872 0.456,-12.941 0.599,-27.3 -3.507,-33.898 C 150.811,33.709 132.89,5.274 112.929,5.274 l -0.001,0 c -0.564,0 -1.132,0.023 -1.686,0.068 L 109.694,5.468 108.4,6.33 c -2.806,1.87 -4.539,3.349 -5.805,4.428 -2.094,1.786 -2.726,2.325 -7.458,3.48 C 78.722,18.246 70.148,30.492 69.79,31.011 l -0.847,1.231 -0.169,1.485 c -0.077,0.668 -1.875,16.542 -2.073,31.831 -0.006,0.478 0.029,0.938 0.073,1.521 0.028,0.37 0.089,1.171 0.1,1.918 -1.326,0.653 -2.454,1.724 -3.233,3.119 -1.133,2.029 -2.219,5.659 -0.549,15.813 0.163,0.99 1.642,9.759 3.375,12.571 1.408,2.284 3.278,3.418 4.704,4.072 0.671,5.341 1.445,9.473 3.638,14.17 1.657,3.897 3.888,25.395 -4.738,29.317 -37.327,16.97 -52.737,24.745 -56.856,28.688 l -0.184,0.176 -0.168,0.191 C 1.801,189.659 1.865,205.755 1.874,206.434 l 0.071,5.928 5.928,0 204.241,0 6.647,0 -0.679,-6.612 z M 71.576,97.354 c -1.25,-2.029 -5.839,-23.087 -1.548,-23.087 3.901,0 2.656,-7.237 2.674,-8.63 0.197,-15.162 2.034,-31.227 2.034,-31.227 0,0 7.446,-10.833 21.825,-14.343 9.179,-2.242 7.643,-3.729 15.167,-8.745 0.398,-0.032 0.799,-0.048 1.199,-0.048 14.042,0 28.99,19.5 33.542,26.814 4.682,7.524 2.006,35.146 2.592,35.146 0.586,0 2.839,0 2.958,5.1 0.113,4.879 -3.966,22.475 -9.632,23.883 -0.087,3.95 -0.581,7.318 -1.8,11.21 l -0.03,-0.006 c -0.02,0.103 -0.048,0.202 -0.069,0.304 -0.394,1.228 -0.853,2.504 -1.4,3.874 -0.177,0.442 -0.338,1.002 -0.483,1.641 -5.33,11.148 -18.589,18.51 -29.354,18.51 -16.395,0 -24.946,-12.187 -29.233,-22.41 l -0.123,0.051 c -1.754,-4.062 -2.334,-7.816 -3.007,-13.529 -0.337,-2.858 -3.637,-1.79 -5.312,-4.508 z M 7.873,206.363 c 0,0 -0.172,-14.322 9.49,-25.28 4.528,-4.333 33.088,-17.511 55.192,-27.561 7.736,-3.518 9.816,-13.708 9.798,-22.641 7,8.381 16.216,12.868 26.896,12.868 9.828,0 21.065,-4.911 28.708,-13.101 0.506,8.932 3.148,19.314 9.883,22.484 24.316,11.442 52.306,23.918 56.782,28.887 5.633,6.249 7.491,24.343 7.491,24.343 l -204.24,0 z"
           id="path4298" />
        <text
           style="font-weight:bold;font-size:5px;font-family:'Helvetica Neue', Helvetica, Arial-Unicode, Arial, Sans-serif;fill:#7f8fa4;fill-opacity:1"
           x="0"
           y="235"
           font-size="5px"
           font-weight="bold"
           id="text4300" />
        <text
           style="font-weight:bold;font-size:5px;font-family:'Helvetica Neue', Helvetica, Arial-Unicode, Arial, Sans-serif;fill:#7f8fa4;fill-opacity:1"
           x="0"
           y="240"
           font-size="5px"
           font-weight="bold"
           id="text4302" />
      </g>
    </g>
  </g>
</svg>
