<?xml version="1.0" encoding="UTF-8" standalone="no"?>
<svg
   xmlns:dc="http://purl.org/dc/elements/1.1/"
   xmlns:cc="http://creativecommons.org/ns#"
   xmlns:rdf="http://www.w3.org/1999/02/22-rdf-syntax-ns#"
   xmlns:svg="http://www.w3.org/2000/svg"
   xmlns="http://www.w3.org/2000/svg"
   width="28.222221mm"
   height="28.222221mm"
   viewBox="0 0 99.999997 99.999997"
   id="svg2"
   version="1.1">
  <defs
     id="defs4" />
  <metadata
     id="metadata7">
    <rdf:RDF>
      <cc:Work
         rdf:about="">
        <dc:format>image/svg+xml</dc:format>
        <dc:type
           rdf:resource="http://purl.org/dc/dcmitype/StillImage" />
        <dc:title></dc:title>
      </cc:Work>
    </rdf:RDF>
  </metadata>
  <g
     id="layer1"
     transform="matrix(0.17785674,0,0,0.17748526,-10.439709,-69.236567)">
    <g
       id="g4169"
       transform="matrix(2.6151175,0,0,2.6151175,50.851942,384.14817)"
       style="fill:#7f8fa4;fill-opacity:1">
      <path
         id="path4157"
         d="m 204.276,188.623 c -4.626,-5.767 -24.583,-20.739 -49.978,-28.077 -21.299,-6.154 -22.159,-24.33 -22.159,-24.33 0,0 10.6,-5.538 18.511,-12.476 12.377,-10.855 17.093,-24.218 14.548,-39.952 -2.545,-15.734 -9.266,-36.861 -12.197,-43.471 -2.931,-6.61 -13.476,-38.042 -45.583,-38.042 -34.389,0 -44.329,24.169 -50.619,37.149 -8.777,18.114 -11.355,43.937 -9.594,72.261 1.066,17.151 1.86,23.463 -0.804,37.128 2.528,0.441 5.143,0.627 7.764,0.627 14.402,0 28.876,-5.64 28.876,-5.64 0,0 -0.019,11.492 -17.516,18.179 -26.724,10.21 -38.952,21.05 -44.286,26.166 C 11.995,200.119 3,217.725 3,217.725 l 215,0 c 0,0 -2.451,-15.059 -13.724,-29.102 z M 82.626,127.17 c -7.558,-13.596 -9.742,-22.844 -9.846,-59.773 23.067,-1.801 37.315,-23.96 42.042,-32.642 7.735,6.451 21.064,19.47 21.064,28.618 l 0,47.687 c 0,20.446 -23.757,27.264 -30.138,27.264 -6.824,0 -18.891,-3.545 -23.122,-11.154 z m -1.758,11.039 c -0.135,0.053 -13.654,5.233 -26.703,5.233 -0.261,0 -0.52,-0.002 -0.776,-0.006 1.277,-9.279 0.843,-16.007 0.107,-27.387 -0.096,-1.486 -0.198,-3.059 -0.302,-4.735 -1.827,-29.39 1.287,-53.344 9.005,-69.273 0.289,-0.595 0.584,-1.213 0.89,-1.851 3.088,-6.451 6.931,-14.48 13.667,-20.889 7.798,-7.419 17.828,-11.025 30.663,-11.025 10.925,0 20.235,4.261 27.672,12.665 6.341,7.166 9.771,15.442 11.614,19.889 0.316,0.763 0.585,1.41 0.812,1.92 2.755,6.212 9.313,26.876 11.759,41.996 2.235,13.818 -1.88,25.098 -12.581,34.483 -2.786,2.443 -5.973,4.722 -8.849,6.606 2.487,-4.156 4.04,-9.06 4.04,-14.775 l 0,-47.687 c 0,-15.217 -23.564,-33.604 -26.251,-35.651 l -2.997,-2.282 -1.554,3.431 c -0.147,0.327 -15.089,32.643 -41.308,32.643 l -3,0 0,3 c 0,40.706 2.26,50.558 10.606,65.571 1.559,2.803 3.78,5.117 6.333,7.021 l -2.847,1.103 z m -55.149,53.956 c 4.059,-3.881 15.567,-14.5 41.948,-24.579 21.105,-8.066 21.373,-23.136 21.374,-23.774 l 0.004,-3.499 c 5.871,2.818 12.326,4.011 16.703,4.011 4.826,0 13.078,-2.179 20.479,-6.905 0.489,4.325 3.868,22.378 26.406,28.891 24.153,6.979 43.122,21.28 46.964,26.068 5.566,6.934 8.787,14.208 10.557,19.346 l -197.047,0 c 3.31,-5.806 7.946,-13.455 12.612,-19.559 z"
         style="fill:#7f8fa4;fill-opacity:1" />
      <text
         id="text4159"
         font-weight="bold"
         font-size="5px"
         y="235"
         x="0"
         style="font-weight:bold;font-size:5px;font-family:'Helvetica Neue', Helvetica, Arial-Unicode, Arial, Sans-serif;fill:#7f8fa4;fill-opacity:1" />
      <text
         id="text4161"
         font-weight="bold"
         font-size="5px"
         y="240"
         x="0"
         style="font-weight:bold;font-size:5px;font-family:'Helvetica Neue', Helvetica, Arial-Unicode, Arial, Sans-serif;fill:#7f8fa4;fill-opacity:1" />
    </g>
  </g>
</svg>
